# xmcd
#
# Track frame offsets:
#	150
#	16798
#	33663
#	48709
#	64905
#	81026
#	100307
#	116252
#	134435
#	149672
#	163922
#	180429
#	198768
#	217934
#	232895
#	249936
#	267328
#	287192
#
# Disc length: 4056 seconds
#
# Revision: 1
# Processed by: cddbd v1.5.2PL0 Copyright (c) Steve Scherf et al.
# Submitted via: audiograbber 1.83.01
#
DISCID=010fd612
DTITLE=Clawfinger - A Whole Lot Of Nothing 
DYEAR=2001
DGENRE=Crossover
TTITLE0=Two Steps Away
TTITLE1=Out To Get Me
TTITLE2=Nothing Going On
TTITLE3=Are You Man Enough
TTITLE4=Confrontation
TTITLE5=Evolution
TTITLE6=Dont Look At Me
TTITLE7=Simon Says
TTITLE8=Burn In Hell
TTITLE9=I Close My Eyes
TTITLE10=Paradise
TTITLE11=Revenge
TTITLE12=Vienna
TTITLE13=Manic Depression
TTITLE14=Fake A Friend
TTITLE15=Hidden Track
TTITLE16=Hidden Track
TTITLE17=Hidden Track
EXTD=
EXTT0=
EXTT1=
EXTT2=
EXTT3=
EXTT4=
EXTT5=
EXTT6=
EXTT7=
EXTT8=
EXTT9=
EXTT10=
EXTT11=
EXTT12=
EXTT13=
EXTT14=
EXTT15=
EXTT16=
EXTT17=
PLAYORDER=
